<svg xmlns="http://www.w3.org/2000/svg"><symbol id="download" viewBox="0 0 32 32"><path d="M25.8 15.5L18 22.7V2h-4v20.7l-7.8-7.2-2.7 3L16 29.9l12.5-11.4z"/></symbol><symbol id="like" viewBox="0 0 32 32"><path d="M17.4 29c-.8.8-2 .8-2.8 0L2.3 16.2C-.8 13.1-.8 8 2.3 4.8c3.1-3.1 8.2-3.1 11.3 0L16 7.6l2.3-2.8c3.1-3.1 8.2-3.1 11.3 0 3.1 3.1 3.1 8.2 0 11.4L17.4 29z"/></symbol><symbol id="search" viewBox="0 0 52.966 52.966"><path d="M51.704 51.273L36.845 35.82c3.79-3.801 6.138-9.041 6.138-14.82 0-11.58-9.42-21-21-21s-21 9.42-21 21 9.42 21 21 21c5.083 0 9.748-1.817 13.384-4.832l14.895 15.491a.998.998 0 0 0 1.414.028 1 1 0 0 0 .028-1.414zM21.983 40c-10.477 0-19-8.523-19-19s8.523-19 19-19 19 8.523 19 19-8.524 19-19 19z"/></symbol><symbol id="test" viewBox="0 0 32 32"><circle cx="16" cy="16" r="16"/></symbol></svg>